<svg xmlns="http://www.w3.org/2000/svg" viewBox="0 0 505 349" font-family="IBM Plex Sans, Helvetica, Arial, sans-serif" shape-rendering="crispEdges">
<rect width="505" height="349" fill="#FFFFFF"/>
<rect x="21" y="21" width="204" height="242" fill="#10261F"/>
<rect x="16" y="16" width="204" height="242" fill="#FFFFFF" stroke="#10261F" stroke-width="3"/>
<rect x="118" y="180" width="8" height="8" fill="#1E6B55"/>
<rect x="126" y="180" width="8" height="8" fill="#1E6B55"/>
<rect x="110" y="188" width="8" height="8" fill="#174D3F"/>
<rect x="118" y="188" width="8" height="8" fill="#174D3F"/>
<rect x="110" y="196" width="8" height="8" fill="#174D3F"/>
<rect x="118" y="196" width="8" height="8" fill="#174D3F"/>
<rect x="102" y="204" width="8" height="8" fill="#174D3F"/>
<rect x="110" y="204" width="8" height="8" fill="#174D3F"/>
<rect x="102" y="212" width="8" height="8" fill="#174D3F"/>
<rect x="110" y="212" width="8" height="8" fill="#174D3F"/>
<rect x="94" y="220" width="8" height="8" fill="#174D3F"/>
<rect x="102" y="220" width="8" height="8" fill="#174D3F"/>
<rect x="94" y="228" width="8" height="8" fill="#174D3F"/>
<rect x="102" y="228" width="8" height="8" fill="#174D3F"/>
<rect x="86" y="236" width="8" height="8" fill="#10261F"/>
<rect x="94" y="236" width="8" height="8" fill="#10261F"/>
<rect x="102" y="236" width="8" height="8" fill="#10261F"/>
<rect x="126" y="188" width="8" height="8" fill="#2F7F68"/>
<rect x="134" y="188" width="8" height="8" fill="#2F7F68"/>
<rect x="126" y="196" width="8" height="8" fill="#2F7F68"/>
<rect x="134" y="196" width="8" height="8" fill="#2F7F68"/>
<rect x="134" y="204" width="8" height="8" fill="#2F7F68"/>
<rect x="142" y="204" width="8" height="8" fill="#2F7F68"/>
<rect x="134" y="212" width="8" height="8" fill="#2F7F68"/>
<rect x="142" y="212" width="8" height="8" fill="#2F7F68"/>
<rect x="142" y="220" width="8" height="8" fill="#2F7F68"/>
<rect x="150" y="220" width="8" height="8" fill="#2F7F68"/>
<rect x="142" y="228" width="8" height="8" fill="#2F7F68"/>
<rect x="150" y="228" width="8" height="8" fill="#2F7F68"/>
<rect x="150" y="236" width="8" height="8" fill="#10261F"/>
<rect x="158" y="236" width="8" height="8" fill="#10261F"/>
<rect x="166" y="236" width="8" height="8" fill="#10261F"/>
<rect x="102" y="148" width="8" height="8" fill="#1E6B55"/>
<rect x="110" y="148" width="8" height="8" fill="#1E6B55"/>
<rect x="118" y="148" width="8" height="8" fill="#1E6B55"/>
<rect x="126" y="148" width="8" height="8" fill="#1E6B55"/>
<rect x="134" y="148" width="8" height="8" fill="#1E6B55"/>
<rect x="142" y="148" width="8" height="8" fill="#1E6B55"/>
<rect x="102" y="156" width="8" height="8" fill="#1E6B55"/>
<rect x="110" y="156" width="8" height="8" fill="#1E6B55"/>
<rect x="118" y="156" width="8" height="8" fill="#43AA8C"/>
<rect x="126" y="156" width="8" height="8" fill="#43AA8C"/>
<rect x="134" y="156" width="8" height="8" fill="#7FD1B5"/>
<rect x="142" y="156" width="8" height="8" fill="#1E6B55"/>
<rect x="102" y="164" width="8" height="8" fill="#1E6B55"/>
<rect x="110" y="164" width="8" height="8" fill="#1E6B55"/>
<rect x="118" y="164" width="8" height="8" fill="#43AA8C"/>
<rect x="126" y="164" width="8" height="8" fill="#7FD1B5"/>
<rect x="134" y="164" width="8" height="8" fill="#1E6B55"/>
<rect x="142" y="164" width="8" height="8" fill="#1E6B55"/>
<rect x="102" y="172" width="8" height="8" fill="#43AA8C"/>
<rect x="110" y="172" width="8" height="8" fill="#7FD1B5"/>
<rect x="118" y="172" width="8" height="8" fill="#7FD1B5"/>
<rect x="126" y="172" width="8" height="8" fill="#10261F"/>
<rect x="134" y="172" width="8" height="8" fill="#10261F"/>
<rect x="142" y="172" width="8" height="8" fill="#10261F"/>
<rect x="102" y="180" width="8" height="8" fill="#F4C9A3"/>
<rect x="110" y="180" width="8" height="8" fill="#1E6B55"/>
<rect x="134" y="180" width="8" height="8" fill="#1E6B55"/>
<rect x="142" y="180" width="8" height="8" fill="#1E6B55"/>
<rect x="94" y="140" width="8" height="8" fill="#FFD167"/>
<rect x="102" y="140" width="8" height="8" fill="#FFD167"/>
<rect x="110" y="140" width="8" height="8" fill="#FFD167"/>
<rect x="118" y="140" width="8" height="8" fill="#FFD167"/>
<rect x="126" y="140" width="8" height="8" fill="#FFD167"/>
<rect x="134" y="140" width="8" height="8" fill="#FFD167"/>
<rect x="142" y="140" width="8" height="8" fill="#FFD167"/>
<rect x="150" y="140" width="8" height="8" fill="#FFD167"/>
<rect x="86" y="148" width="8" height="8" fill="#FFD167"/>
<rect x="78" y="148" width="8" height="8" fill="#FFD167"/>
<rect x="70" y="156" width="8" height="8" fill="#E0A93B"/>
<rect x="118" y="76" width="8" height="8" fill="#43AA8C"/>
<rect x="126" y="76" width="8" height="8" fill="#43AA8C"/>
<rect x="134" y="76" width="8" height="8" fill="#43AA8C"/>
<rect x="142" y="76" width="8" height="8" fill="#43AA8C"/>
<rect x="102" y="84" width="8" height="8" fill="#43AA8C"/>
<rect x="110" y="84" width="8" height="8" fill="#43AA8C"/>
<rect x="118" y="84" width="8" height="8" fill="#43AA8C"/>
<rect x="126" y="84" width="8" height="8" fill="#43AA8C"/>
<rect x="134" y="84" width="8" height="8" fill="#43AA8C"/>
<rect x="142" y="84" width="8" height="8" fill="#43AA8C"/>
<rect x="150" y="84" width="8" height="8" fill="#43AA8C"/>
<rect x="86" y="92" width="8" height="8" fill="#43AA8C"/>
<rect x="94" y="92" width="8" height="8" fill="#43AA8C"/>
<rect x="102" y="92" width="8" height="8" fill="#43AA8C"/>
<rect x="110" y="92" width="8" height="8" fill="#7FD1B5"/>
<rect x="118" y="92" width="8" height="8" fill="#7FD1B5"/>
<rect x="126" y="92" width="8" height="8" fill="#43AA8C"/>
<rect x="134" y="92" width="8" height="8" fill="#43AA8C"/>
<rect x="142" y="92" width="8" height="8" fill="#43AA8C"/>
<rect x="150" y="92" width="8" height="8" fill="#43AA8C"/>
<rect x="158" y="92" width="8" height="8" fill="#43AA8C"/>
<rect x="78" y="100" width="8" height="8" fill="#43AA8C"/>
<rect x="86" y="100" width="8" height="8" fill="#43AA8C"/>
<rect x="94" y="100" width="8" height="8" fill="#43AA8C"/>
<rect x="102" y="100" width="8" height="8" fill="#7FD1B5"/>
<rect x="110" y="100" width="8" height="8" fill="#43AA8C"/>
<rect x="118" y="100" width="8" height="8" fill="#43AA8C"/>
<rect x="126" y="100" width="8" height="8" fill="#F4C9A3"/>
<rect x="134" y="100" width="8" height="8" fill="#F4C9A3"/>
<rect x="142" y="100" width="8" height="8" fill="#F4C9A3"/>
<rect x="150" y="100" width="8" height="8" fill="#F4C9A3"/>
<rect x="158" y="100" width="8" height="8" fill="#43AA8C"/>
<rect x="70" y="108" width="8" height="8" fill="#43AA8C"/>
<rect x="78" y="108" width="8" height="8" fill="#43AA8C"/>
<rect x="86" y="108" width="8" height="8" fill="#43AA8C"/>
<rect x="94" y="108" width="8" height="8" fill="#43AA8C"/>
<rect x="102" y="108" width="8" height="8" fill="#43AA8C"/>
<rect x="110" y="108" width="8" height="8" fill="#43AA8C"/>
<rect x="118" y="108" width="8" height="8" fill="#F4C9A3"/>
<rect x="126" y="108" width="8" height="8" fill="#F4C9A3"/>
<rect x="134" y="108" width="8" height="8" fill="#F4C9A3"/>
<rect x="142" y="108" width="8" height="8" fill="#10261F"/>
<rect x="150" y="108" width="8" height="8" fill="#F4C9A3"/>
<rect x="158" y="108" width="8" height="8" fill="#43AA8C"/>
<rect x="78" y="116" width="8" height="8" fill="#43AA8C"/>
<rect x="86" y="116" width="8" height="8" fill="#43AA8C"/>
<rect x="94" y="116" width="8" height="8" fill="#43AA8C"/>
<rect x="102" y="116" width="8" height="8" fill="#43AA8C"/>
<rect x="110" y="116" width="8" height="8" fill="#43AA8C"/>
<rect x="118" y="116" width="8" height="8" fill="#F4C9A3"/>
<rect x="126" y="116" width="8" height="8" fill="#F4C9A3"/>
<rect x="134" y="116" width="8" height="8" fill="#F4C9A3"/>
<rect x="142" y="116" width="8" height="8" fill="#10261F"/>
<rect x="150" y="116" width="8" height="8" fill="#F4C9A3"/>
<rect x="158" y="116" width="8" height="8" fill="#43AA8C"/>
<rect x="86" y="124" width="8" height="8" fill="#43AA8C"/>
<rect x="94" y="124" width="8" height="8" fill="#43AA8C"/>
<rect x="102" y="124" width="8" height="8" fill="#43AA8C"/>
<rect x="110" y="124" width="8" height="8" fill="#43AA8C"/>
<rect x="118" y="124" width="8" height="8" fill="#43AA8C"/>
<rect x="126" y="124" width="8" height="8" fill="#D99E78"/>
<rect x="134" y="124" width="8" height="8" fill="#D99E78"/>
<rect x="142" y="124" width="8" height="8" fill="#F4C9A3"/>
<rect x="150" y="124" width="8" height="8" fill="#F4C9A3"/>
<rect x="158" y="124" width="8" height="8" fill="#43AA8C"/>
<rect x="94" y="132" width="8" height="8" fill="#43AA8C"/>
<rect x="102" y="132" width="8" height="8" fill="#43AA8C"/>
<rect x="110" y="132" width="8" height="8" fill="#43AA8C"/>
<rect x="118" y="132" width="8" height="8" fill="#43AA8C"/>
<rect x="126" y="132" width="8" height="8" fill="#43AA8C"/>
<rect x="134" y="132" width="8" height="8" fill="#43AA8C"/>
<rect x="142" y="132" width="8" height="8" fill="#43AA8C"/>
<rect x="150" y="132" width="8" height="8" fill="#43AA8C"/>
<rect x="94" y="180" width="8" height="8" fill="#F4C9A3"/>
<rect x="102" y="188" width="8" height="8" fill="#10261F"/>
<rect x="102" y="196" width="8" height="8" fill="#10261F"/>
<rect x="118" y="204" width="8" height="8" fill="#10261F"/>
<rect x="94" y="204" width="8" height="8" fill="#10261F"/>
<rect x="94" y="212" width="8" height="8" fill="#10261F"/>
<rect x="118" y="212" width="8" height="8" fill="#10261F"/>
<rect x="110" y="220" width="8" height="8" fill="#10261F"/>
<rect x="86" y="220" width="8" height="8" fill="#10261F"/>
<rect x="86" y="228" width="8" height="8" fill="#10261F"/>
<rect x="110" y="228" width="8" height="8" fill="#10261F"/>
<rect x="78" y="236" width="8" height="8" fill="#10261F"/>
<rect x="86" y="244" width="8" height="8" fill="#10261F"/>
<rect x="94" y="244" width="8" height="8" fill="#10261F"/>
<rect x="110" y="236" width="8" height="8" fill="#10261F"/>
<rect x="102" y="244" width="8" height="8" fill="#10261F"/>
<rect x="142" y="188" width="8" height="8" fill="#10261F"/>
<rect x="126" y="204" width="8" height="8" fill="#10261F"/>
<rect x="142" y="196" width="8" height="8" fill="#10261F"/>
<rect x="150" y="204" width="8" height="8" fill="#10261F"/>
<rect x="126" y="212" width="8" height="8" fill="#10261F"/>
<rect x="134" y="220" width="8" height="8" fill="#10261F"/>
<rect x="150" y="212" width="8" height="8" fill="#10261F"/>
<rect x="158" y="220" width="8" height="8" fill="#10261F"/>
<rect x="134" y="228" width="8" height="8" fill="#10261F"/>
<rect x="142" y="236" width="8" height="8" fill="#10261F"/>
<rect x="158" y="228" width="8" height="8" fill="#10261F"/>
<rect x="150" y="244" width="8" height="8" fill="#10261F"/>
<rect x="158" y="244" width="8" height="8" fill="#10261F"/>
<rect x="174" y="236" width="8" height="8" fill="#10261F"/>
<rect x="166" y="244" width="8" height="8" fill="#10261F"/>
<rect x="166" y="228" width="8" height="8" fill="#10261F"/>
<rect x="94" y="148" width="8" height="8" fill="#10261F"/>
<rect x="150" y="148" width="8" height="8" fill="#10261F"/>
<rect x="94" y="156" width="8" height="8" fill="#10261F"/>
<rect x="150" y="156" width="8" height="8" fill="#10261F"/>
<rect x="94" y="164" width="8" height="8" fill="#10261F"/>
<rect x="150" y="164" width="8" height="8" fill="#10261F"/>
<rect x="94" y="172" width="8" height="8" fill="#10261F"/>
<rect x="150" y="172" width="8" height="8" fill="#10261F"/>
<rect x="150" y="180" width="8" height="8" fill="#10261F"/>
<rect x="86" y="140" width="8" height="8" fill="#10261F"/>
<rect x="158" y="140" width="8" height="8" fill="#10261F"/>
<rect x="86" y="156" width="8" height="8" fill="#10261F"/>
<rect x="70" y="148" width="8" height="8" fill="#10261F"/>
<rect x="78" y="156" width="8" height="8" fill="#10261F"/>
<rect x="78" y="140" width="8" height="8" fill="#10261F"/>
<rect x="62" y="156" width="8" height="8" fill="#10261F"/>
<rect x="70" y="164" width="8" height="8" fill="#10261F"/>
<rect x="110" y="76" width="8" height="8" fill="#10261F"/>
<rect x="118" y="68" width="8" height="8" fill="#10261F"/>
<rect x="126" y="68" width="8" height="8" fill="#10261F"/>
<rect x="134" y="68" width="8" height="8" fill="#10261F"/>
<rect x="150" y="76" width="8" height="8" fill="#10261F"/>
<rect x="142" y="68" width="8" height="8" fill="#10261F"/>
<rect x="94" y="84" width="8" height="8" fill="#10261F"/>
<rect x="102" y="76" width="8" height="8" fill="#10261F"/>
<rect x="158" y="84" width="8" height="8" fill="#10261F"/>
<rect x="78" y="92" width="8" height="8" fill="#10261F"/>
<rect x="86" y="84" width="8" height="8" fill="#10261F"/>
<rect x="166" y="92" width="8" height="8" fill="#10261F"/>
<rect x="70" y="100" width="8" height="8" fill="#10261F"/>
<rect x="166" y="100" width="8" height="8" fill="#10261F"/>
<rect x="62" y="108" width="8" height="8" fill="#10261F"/>
<rect x="70" y="116" width="8" height="8" fill="#10261F"/>
<rect x="166" y="108" width="8" height="8" fill="#10261F"/>
<rect x="78" y="124" width="8" height="8" fill="#10261F"/>
<rect x="166" y="116" width="8" height="8" fill="#10261F"/>
<rect x="86" y="132" width="8" height="8" fill="#10261F"/>
<rect x="166" y="124" width="8" height="8" fill="#10261F"/>
<rect x="158" y="132" width="8" height="8" fill="#10261F"/>
<rect x="86" y="180" width="8" height="8" fill="#10261F"/>
<rect x="94" y="188" width="8" height="8" fill="#10261F"/>
<rect x="285" y="21" width="204" height="242" fill="#10261F"/>
<rect x="280" y="16" width="204" height="242" fill="#FFFFFF" stroke="#10261F" stroke-width="3"/>
<rect x="382" y="180" width="8" height="8" fill="#1E6B55"/>
<rect x="390" y="180" width="8" height="8" fill="#1E6B55"/>
<rect x="390" y="188" width="8" height="8" fill="#174D3F"/>
<rect x="398" y="188" width="8" height="8" fill="#174D3F"/>
<rect x="390" y="196" width="8" height="8" fill="#174D3F"/>
<rect x="398" y="196" width="8" height="8" fill="#174D3F"/>
<rect x="398" y="204" width="8" height="8" fill="#174D3F"/>
<rect x="406" y="204" width="8" height="8" fill="#174D3F"/>
<rect x="398" y="212" width="8" height="8" fill="#174D3F"/>
<rect x="406" y="212" width="8" height="8" fill="#174D3F"/>
<rect x="406" y="220" width="8" height="8" fill="#174D3F"/>
<rect x="414" y="220" width="8" height="8" fill="#174D3F"/>
<rect x="406" y="228" width="8" height="8" fill="#174D3F"/>
<rect x="414" y="228" width="8" height="8" fill="#174D3F"/>
<rect x="414" y="236" width="8" height="8" fill="#10261F"/>
<rect x="422" y="236" width="8" height="8" fill="#10261F"/>
<rect x="430" y="236" width="8" height="8" fill="#10261F"/>
<rect x="374" y="188" width="8" height="8" fill="#2F7F68"/>
<rect x="382" y="188" width="8" height="8" fill="#2F7F68"/>
<rect x="374" y="196" width="8" height="8" fill="#2F7F68"/>
<rect x="382" y="196" width="8" height="8" fill="#2F7F68"/>
<rect x="366" y="204" width="8" height="8" fill="#2F7F68"/>
<rect x="374" y="204" width="8" height="8" fill="#2F7F68"/>
<rect x="366" y="212" width="8" height="8" fill="#2F7F68"/>
<rect x="374" y="212" width="8" height="8" fill="#2F7F68"/>
<rect x="358" y="220" width="8" height="8" fill="#2F7F68"/>
<rect x="366" y="220" width="8" height="8" fill="#2F7F68"/>
<rect x="358" y="228" width="8" height="8" fill="#2F7F68"/>
<rect x="366" y="228" width="8" height="8" fill="#2F7F68"/>
<rect x="350" y="236" width="8" height="8" fill="#10261F"/>
<rect x="358" y="236" width="8" height="8" fill="#10261F"/>
<rect x="366" y="236" width="8" height="8" fill="#10261F"/>
<rect x="366" y="148" width="8" height="8" fill="#1E6B55"/>
<rect x="374" y="148" width="8" height="8" fill="#1E6B55"/>
<rect x="382" y="148" width="8" height="8" fill="#1E6B55"/>
<rect x="390" y="148" width="8" height="8" fill="#1E6B55"/>
<rect x="398" y="148" width="8" height="8" fill="#1E6B55"/>
<rect x="406" y="148" width="8" height="8" fill="#1E6B55"/>
<rect x="366" y="156" width="8" height="8" fill="#1E6B55"/>
<rect x="374" y="156" width="8" height="8" fill="#1E6B55"/>
<rect x="382" y="156" width="8" height="8" fill="#43AA8C"/>
<rect x="390" y="156" width="8" height="8" fill="#43AA8C"/>
<rect x="398" y="156" width="8" height="8" fill="#7FD1B5"/>
<rect x="406" y="156" width="8" height="8" fill="#1E6B55"/>
<rect x="366" y="164" width="8" height="8" fill="#1E6B55"/>
<rect x="374" y="164" width="8" height="8" fill="#1E6B55"/>
<rect x="382" y="164" width="8" height="8" fill="#1E6B55"/>
<rect x="390" y="164" width="8" height="8" fill="#1E6B55"/>
<rect x="398" y="164" width="8" height="8" fill="#43AA8C"/>
<rect x="406" y="164" width="8" height="8" fill="#7FD1B5"/>
<rect x="366" y="172" width="8" height="8" fill="#10261F"/>
<rect x="374" y="172" width="8" height="8" fill="#10261F"/>
<rect x="382" y="172" width="8" height="8" fill="#E0A93B"/>
<rect x="390" y="172" width="8" height="8" fill="#10261F"/>
<rect x="398" y="172" width="8" height="8" fill="#10261F"/>
<rect x="406" y="172" width="8" height="8" fill="#43AA8C"/>
<rect x="366" y="180" width="8" height="8" fill="#1E6B55"/>
<rect x="374" y="180" width="8" height="8" fill="#1E6B55"/>
<rect x="398" y="180" width="8" height="8" fill="#1E6B55"/>
<rect x="406" y="180" width="8" height="8" fill="#1E6B55"/>
<rect x="358" y="140" width="8" height="8" fill="#FFD167"/>
<rect x="366" y="140" width="8" height="8" fill="#FFD167"/>
<rect x="374" y="140" width="8" height="8" fill="#FFD167"/>
<rect x="382" y="140" width="8" height="8" fill="#FFD167"/>
<rect x="390" y="140" width="8" height="8" fill="#FFD167"/>
<rect x="398" y="140" width="8" height="8" fill="#FFD167"/>
<rect x="406" y="140" width="8" height="8" fill="#FFD167"/>
<rect x="414" y="140" width="8" height="8" fill="#FFD167"/>
<rect x="350" y="148" width="8" height="8" fill="#FFD167"/>
<rect x="342" y="148" width="8" height="8" fill="#FFD167"/>
<rect x="334" y="156" width="8" height="8" fill="#E0A93B"/>
<rect x="382" y="76" width="8" height="8" fill="#43AA8C"/>
<rect x="390" y="76" width="8" height="8" fill="#43AA8C"/>
<rect x="398" y="76" width="8" height="8" fill="#43AA8C"/>
<rect x="406" y="76" width="8" height="8" fill="#43AA8C"/>
<rect x="366" y="84" width="8" height="8" fill="#43AA8C"/>
<rect x="374" y="84" width="8" height="8" fill="#43AA8C"/>
<rect x="382" y="84" width="8" height="8" fill="#43AA8C"/>
<rect x="390" y="84" width="8" height="8" fill="#43AA8C"/>
<rect x="398" y="84" width="8" height="8" fill="#43AA8C"/>
<rect x="406" y="84" width="8" height="8" fill="#43AA8C"/>
<rect x="414" y="84" width="8" height="8" fill="#43AA8C"/>
<rect x="350" y="92" width="8" height="8" fill="#43AA8C"/>
<rect x="358" y="92" width="8" height="8" fill="#43AA8C"/>
<rect x="366" y="92" width="8" height="8" fill="#43AA8C"/>
<rect x="374" y="92" width="8" height="8" fill="#7FD1B5"/>
<rect x="382" y="92" width="8" height="8" fill="#7FD1B5"/>
<rect x="390" y="92" width="8" height="8" fill="#43AA8C"/>
<rect x="398" y="92" width="8" height="8" fill="#43AA8C"/>
<rect x="406" y="92" width="8" height="8" fill="#43AA8C"/>
<rect x="414" y="92" width="8" height="8" fill="#43AA8C"/>
<rect x="422" y="92" width="8" height="8" fill="#43AA8C"/>
<rect x="342" y="100" width="8" height="8" fill="#43AA8C"/>
<rect x="350" y="100" width="8" height="8" fill="#43AA8C"/>
<rect x="358" y="100" width="8" height="8" fill="#43AA8C"/>
<rect x="366" y="100" width="8" height="8" fill="#7FD1B5"/>
<rect x="374" y="100" width="8" height="8" fill="#43AA8C"/>
<rect x="382" y="100" width="8" height="8" fill="#43AA8C"/>
<rect x="390" y="100" width="8" height="8" fill="#F4C9A3"/>
<rect x="398" y="100" width="8" height="8" fill="#F4C9A3"/>
<rect x="406" y="100" width="8" height="8" fill="#F4C9A3"/>
<rect x="414" y="100" width="8" height="8" fill="#F4C9A3"/>
<rect x="422" y="100" width="8" height="8" fill="#43AA8C"/>
<rect x="334" y="108" width="8" height="8" fill="#43AA8C"/>
<rect x="342" y="108" width="8" height="8" fill="#43AA8C"/>
<rect x="350" y="108" width="8" height="8" fill="#43AA8C"/>
<rect x="358" y="108" width="8" height="8" fill="#43AA8C"/>
<rect x="366" y="108" width="8" height="8" fill="#43AA8C"/>
<rect x="374" y="108" width="8" height="8" fill="#43AA8C"/>
<rect x="382" y="108" width="8" height="8" fill="#F4C9A3"/>
<rect x="390" y="108" width="8" height="8" fill="#F4C9A3"/>
<rect x="398" y="108" width="8" height="8" fill="#F4C9A3"/>
<rect x="406" y="108" width="8" height="8" fill="#10261F"/>
<rect x="414" y="108" width="8" height="8" fill="#F4C9A3"/>
<rect x="422" y="108" width="8" height="8" fill="#43AA8C"/>
<rect x="342" y="116" width="8" height="8" fill="#43AA8C"/>
<rect x="350" y="116" width="8" height="8" fill="#43AA8C"/>
<rect x="358" y="116" width="8" height="8" fill="#43AA8C"/>
<rect x="366" y="116" width="8" height="8" fill="#43AA8C"/>
<rect x="374" y="116" width="8" height="8" fill="#43AA8C"/>
<rect x="382" y="116" width="8" height="8" fill="#F4C9A3"/>
<rect x="390" y="116" width="8" height="8" fill="#F4C9A3"/>
<rect x="398" y="116" width="8" height="8" fill="#F4C9A3"/>
<rect x="406" y="116" width="8" height="8" fill="#10261F"/>
<rect x="414" y="116" width="8" height="8" fill="#F4C9A3"/>
<rect x="422" y="116" width="8" height="8" fill="#43AA8C"/>
<rect x="350" y="124" width="8" height="8" fill="#43AA8C"/>
<rect x="358" y="124" width="8" height="8" fill="#43AA8C"/>
<rect x="366" y="124" width="8" height="8" fill="#43AA8C"/>
<rect x="374" y="124" width="8" height="8" fill="#43AA8C"/>
<rect x="382" y="124" width="8" height="8" fill="#43AA8C"/>
<rect x="390" y="124" width="8" height="8" fill="#D99E78"/>
<rect x="398" y="124" width="8" height="8" fill="#D99E78"/>
<rect x="406" y="124" width="8" height="8" fill="#F4C9A3"/>
<rect x="414" y="124" width="8" height="8" fill="#F4C9A3"/>
<rect x="422" y="124" width="8" height="8" fill="#43AA8C"/>
<rect x="358" y="132" width="8" height="8" fill="#43AA8C"/>
<rect x="366" y="132" width="8" height="8" fill="#43AA8C"/>
<rect x="374" y="132" width="8" height="8" fill="#43AA8C"/>
<rect x="382" y="132" width="8" height="8" fill="#43AA8C"/>
<rect x="390" y="132" width="8" height="8" fill="#43AA8C"/>
<rect x="398" y="132" width="8" height="8" fill="#43AA8C"/>
<rect x="406" y="132" width="8" height="8" fill="#43AA8C"/>
<rect x="414" y="132" width="8" height="8" fill="#43AA8C"/>
<rect x="414" y="172" width="8" height="8" fill="#43AA8C"/>
<rect x="422" y="172" width="8" height="8" fill="#7FD1B5"/>
<rect x="422" y="180" width="8" height="8" fill="#F4C9A3"/>
<rect x="430" y="180" width="8" height="8" fill="#F4C9A3"/>
<rect x="406" y="188" width="8" height="8" fill="#10261F"/>
<rect x="390" y="204" width="8" height="8" fill="#10261F"/>
<rect x="406" y="196" width="8" height="8" fill="#10261F"/>
<rect x="414" y="204" width="8" height="8" fill="#10261F"/>
<rect x="390" y="212" width="8" height="8" fill="#10261F"/>
<rect x="398" y="220" width="8" height="8" fill="#10261F"/>
<rect x="414" y="212" width="8" height="8" fill="#10261F"/>
<rect x="422" y="220" width="8" height="8" fill="#10261F"/>
<rect x="398" y="228" width="8" height="8" fill="#10261F"/>
<rect x="406" y="236" width="8" height="8" fill="#10261F"/>
<rect x="422" y="228" width="8" height="8" fill="#10261F"/>
<rect x="414" y="244" width="8" height="8" fill="#10261F"/>
<rect x="422" y="244" width="8" height="8" fill="#10261F"/>
<rect x="438" y="236" width="8" height="8" fill="#10261F"/>
<rect x="430" y="244" width="8" height="8" fill="#10261F"/>
<rect x="430" y="228" width="8" height="8" fill="#10261F"/>
<rect x="366" y="188" width="8" height="8" fill="#10261F"/>
<rect x="366" y="196" width="8" height="8" fill="#10261F"/>
<rect x="382" y="204" width="8" height="8" fill="#10261F"/>
<rect x="358" y="204" width="8" height="8" fill="#10261F"/>
<rect x="358" y="212" width="8" height="8" fill="#10261F"/>
<rect x="382" y="212" width="8" height="8" fill="#10261F"/>
<rect x="374" y="220" width="8" height="8" fill="#10261F"/>
<rect x="350" y="220" width="8" height="8" fill="#10261F"/>
<rect x="350" y="228" width="8" height="8" fill="#10261F"/>
<rect x="374" y="228" width="8" height="8" fill="#10261F"/>
<rect x="342" y="236" width="8" height="8" fill="#10261F"/>
<rect x="350" y="244" width="8" height="8" fill="#10261F"/>
<rect x="358" y="244" width="8" height="8" fill="#10261F"/>
<rect x="374" y="236" width="8" height="8" fill="#10261F"/>
<rect x="366" y="244" width="8" height="8" fill="#10261F"/>
<rect x="358" y="148" width="8" height="8" fill="#10261F"/>
<rect x="414" y="148" width="8" height="8" fill="#10261F"/>
<rect x="358" y="156" width="8" height="8" fill="#10261F"/>
<rect x="414" y="156" width="8" height="8" fill="#10261F"/>
<rect x="358" y="164" width="8" height="8" fill="#10261F"/>
<rect x="414" y="164" width="8" height="8" fill="#10261F"/>
<rect x="358" y="172" width="8" height="8" fill="#10261F"/>
<rect x="358" y="180" width="8" height="8" fill="#10261F"/>
<rect x="414" y="180" width="8" height="8" fill="#10261F"/>
<rect x="350" y="140" width="8" height="8" fill="#10261F"/>
<rect x="422" y="140" width="8" height="8" fill="#10261F"/>
<rect x="350" y="156" width="8" height="8" fill="#10261F"/>
<rect x="334" y="148" width="8" height="8" fill="#10261F"/>
<rect x="342" y="156" width="8" height="8" fill="#10261F"/>
<rect x="342" y="140" width="8" height="8" fill="#10261F"/>
<rect x="326" y="156" width="8" height="8" fill="#10261F"/>
<rect x="334" y="164" width="8" height="8" fill="#10261F"/>
<rect x="374" y="76" width="8" height="8" fill="#10261F"/>
<rect x="382" y="68" width="8" height="8" fill="#10261F"/>
<rect x="390" y="68" width="8" height="8" fill="#10261F"/>
<rect x="398" y="68" width="8" height="8" fill="#10261F"/>
<rect x="414" y="76" width="8" height="8" fill="#10261F"/>
<rect x="406" y="68" width="8" height="8" fill="#10261F"/>
<rect x="358" y="84" width="8" height="8" fill="#10261F"/>
<rect x="366" y="76" width="8" height="8" fill="#10261F"/>
<rect x="422" y="84" width="8" height="8" fill="#10261F"/>
<rect x="342" y="92" width="8" height="8" fill="#10261F"/>
<rect x="350" y="84" width="8" height="8" fill="#10261F"/>
<rect x="430" y="92" width="8" height="8" fill="#10261F"/>
<rect x="334" y="100" width="8" height="8" fill="#10261F"/>
<rect x="430" y="100" width="8" height="8" fill="#10261F"/>
<rect x="326" y="108" width="8" height="8" fill="#10261F"/>
<rect x="334" y="116" width="8" height="8" fill="#10261F"/>
<rect x="430" y="108" width="8" height="8" fill="#10261F"/>
<rect x="342" y="124" width="8" height="8" fill="#10261F"/>
<rect x="430" y="116" width="8" height="8" fill="#10261F"/>
<rect x="350" y="132" width="8" height="8" fill="#10261F"/>
<rect x="430" y="124" width="8" height="8" fill="#10261F"/>
<rect x="422" y="132" width="8" height="8" fill="#10261F"/>
<rect x="430" y="172" width="8" height="8" fill="#10261F"/>
<rect x="422" y="164" width="8" height="8" fill="#10261F"/>
<rect x="422" y="188" width="8" height="8" fill="#10261F"/>
<rect x="438" y="180" width="8" height="8" fill="#10261F"/>
<rect x="430" y="188" width="8" height="8" fill="#10261F"/>
<circle cx="162.0" cy="240.0" r="11" fill="none" stroke="#E4572E" stroke-width="4"/>
<circle cx="98.0" cy="184.0" r="11" fill="none" stroke="#E0A93B" stroke-width="4"/>
<text shape-rendering="auto" x="118.0" y="296" font-size="16" text-anchor="middle" font-weight="700" fill="#E0A93B">brazo cercano detrás</text>
<text shape-rendering="auto" x="118.0" y="322" font-size="16" text-anchor="middle" font-weight="700" fill="#E4572E">pierna cercana delante</text>
<circle cx="362.0" cy="240.0" r="11" fill="none" stroke="#E4572E" stroke-width="4"/>
<circle cx="426.0" cy="184.0" r="11" fill="none" stroke="#E0A93B" stroke-width="4"/>
<text shape-rendering="auto" x="382.0" y="296" font-size="16" text-anchor="middle" font-weight="700" fill="#E0A93B">brazo cercano delante</text>
<text shape-rendering="auto" x="382.0" y="322" font-size="16" text-anchor="middle" font-weight="700" fill="#E4572E">pierna cercana detrás</text>
</svg>
